<?xml version="1.0" encoding="utf-8"?>
<!-- Generator: Adobe Illustrator 18.1.1, SVG Export Plug-In . SVG Version: 6.00 Build 0)  -->
<svg version="1.1" id="Layer_1" xmlns="http://www.w3.org/2000/svg" xmlns:xlink="http://www.w3.org/1999/xlink" x="0px" y="0px"
	 viewBox="0 0 50 50" enable-background="new 0 0 50 50" xml:space="preserve">
<g>
	<path fill="#FCEE0E" d="M18,34.9L18,34.9c-2.5-2.5-4.1-6-4.1-9.9c0-3.9,1.6-7.4,4.1-9.9l0,0c2.1-2.1,2.1-5.6,0-7.8
		c-2.1-2.1-5.6-2.1-7.8,0C5.7,11.8,2.9,18.1,2.9,25c0,6.9,2.8,13.2,7.3,17.7c2.1,2.1,5.6,2.1,7.8,0C20.1,40.5,20.1,37,18,34.9
		C18,34.9,18,34.9,18,34.9z"/>
	<path fill="#50B6E2" d="M18,15.1L18,15.1c2.5-2.5,6-4.1,9.9-4.1c3.9,0,7.4,1.6,9.9,4.1l0,0c2.1,2.1,5.6,2.1,7.8,0
		c2.1-2.1,2.1-5.6,0-7.8C41,2.8,34.8,0,27.9,0C21,0,14.7,2.8,10.2,7.3C8,9.5,8,13,10.2,15.1C12.3,17.3,15.8,17.3,18,15.1
		C18,15.1,18,15.1,18,15.1z"/>
	<path fill="#F15851" d="M37.8,34.9L37.8,34.9c-2.5,2.5-6,4.1-9.9,4.1c-3.9,0-7.4-1.6-9.9-4.1l0,0c-2.1-2.1-5.6-2.1-7.8,0
		C8,37,8,40.5,10.2,42.7C14.7,47.2,21,50,27.9,50c6.9,0,13.2-2.8,17.7-7.3c2.1-2.1,2.1-5.6,0-7.8C43.4,32.7,39.9,32.7,37.8,34.9
		C37.8,34.9,37.8,34.9,37.8,34.9z"/>
	<circle fill="#0A83B8" cx="14.1" cy="11.2" r="5.5"/>
	<circle fill="#CE4739" cx="14.1" cy="38.8" r="5.5"/>
</g>
</svg>
